<svg id="Capa_1" enable-background="new 0 0 512 512" height="512" viewBox="0 0 512 512" width="512" xmlns="http://www.w3.org/2000/svg"><g><path d="m400.904 222.798v-94.404c0-7.224-5.133-13.354-12.119-14.72l-126.096-72.801c-4.641-2.68-10.359-2.68-15 0l-129.093 74.532c-4.641 2.679-7.5 7.631-7.5 12.99v94.404c-49.739 15.649-111.096 47.948-111.096 100.064 0 44.723 47.412 83.574 127.305 104.758l-5.96 27.292c-2.556 11.702 9.041 21.601 20.226 17.127l75-30c9.922-3.967 12.64-16.794 5.129-24.439l-56-57c-8.332-8.478-22.812-4.334-25.355 7.313l-6.631 30.363c-63.304-17.056-103.714-46.228-103.714-75.414 0-25.345 30.686-50.947 81.096-68.464v23.06c0 5.359 2.859 10.311 7.5 12.99l129.904 75c4.641 2.68 10.359 2.68 15 0l129.904-75c4.641-2.68 7.5-7.631 7.5-12.99v-23.06c50.41 17.517 81.096 43.119 81.096 68.464 0 55.546-121.998 83.743-181.91 88.684-8.256.682-14.396 7.928-13.715 16.184.675 8.174 7.835 14.395 16.184 13.715 78.101-6.457 209.441-40.205 209.441-118.583 0-52.121-61.374-84.42-111.096-100.065zm-237.167 178.612 20.773 21.144-27.821 11.129zm91.452-330.227 99.904 57.68c-12.197 7.042-90.954 52.512-99.093 57.211-8.88-5.127-86.579-49.986-99.904-57.68zm-114.093 83.193 99.904 57.679v114.423l-99.904-57.68zm229.808 114.422-99.904 57.68v-114.423l99.904-57.679z"/></g></svg>